<svg width="252" height="142" viewBox="0 0 252 142" fill="none" xmlns="http://www.w3.org/2000/svg">
<path d="M90.5342 62.5794H94.7866V79.804H90.5342V62.5794ZM96.4734 73.3004C96.4734 69.0404 99.0816 66.4986 103.107 66.4986C107.133 66.4986 109.741 69.0404 109.741 73.3004C109.741 77.5604 107.19 80.1164 103.107 80.1164C99.0249 80.1164 96.4734 77.6314 96.4734 73.3004ZM105.474 73.3004C105.474 70.9574 104.553 69.58 103.107 69.58C101.661 69.58 100.754 71 100.754 73.3004C100.754 75.6008 101.647 76.9924 103.107 76.9924C104.567 76.9924 105.474 75.686 105.474 73.3146V73.3004ZM111.343 80.6418H115.425C115.619 81.0742 115.948 81.4322 116.362 81.6625C116.775 81.8927 117.252 81.983 117.721 81.9198C119.337 81.9198 120.188 81.0394 120.188 79.7614V77.3758H120.103C119.764 78.107 119.214 78.7196 118.525 79.1347C117.835 79.5498 117.037 79.7483 116.233 79.7046C113.129 79.7046 111.074 77.3332 111.074 73.2578C111.074 69.1824 113.03 66.6122 116.29 66.6122C117.118 66.5797 117.937 66.8016 118.637 67.2483C119.336 67.6949 119.882 68.345 120.202 69.1114V66.74H124.455V79.662C124.455 82.7718 121.719 84.703 117.679 84.703C113.923 84.703 111.584 83.0132 111.343 80.656V80.6418ZM120.202 73.2862C120.202 71.213 119.252 69.9066 117.75 69.9066C116.247 69.9066 115.326 71.1988 115.326 73.2862C115.326 75.3736 116.233 76.5522 117.75 76.5522C119.267 76.5522 120.202 75.402 120.202 73.3004V73.2862ZM126.056 73.2862C126.056 69.0262 128.664 66.4844 132.69 66.4844C136.716 66.4844 139.338 69.0262 139.338 73.2862C139.338 77.5462 136.787 80.1022 132.69 80.1022C128.594 80.1022 126.056 77.6314 126.056 73.3004V73.2862ZM135.057 73.2862C135.057 70.9432 134.136 69.5658 132.69 69.5658C131.244 69.5658 130.408 71 130.408 73.3146C130.408 75.6292 131.301 77.0066 132.747 77.0066C134.193 77.0066 135.057 75.686 135.057 73.3146V73.2862ZM140.954 63.6444C140.943 63.2143 141.059 62.7906 141.289 62.4269C141.519 62.0632 141.851 61.7761 142.243 61.6017C142.636 61.4274 143.072 61.3738 143.495 61.4477C143.918 61.5217 144.309 61.7198 144.62 62.0169C144.931 62.3141 145.146 62.697 145.239 63.117C145.332 63.537 145.299 63.9753 145.143 64.3762C144.987 64.7772 144.716 65.1227 144.364 65.3691C144.012 65.6155 143.595 65.7516 143.165 65.7602C142.881 65.7798 142.595 65.7402 142.326 65.6439C142.058 65.5476 141.812 65.3968 141.604 65.2007C141.397 65.0047 141.232 64.7678 141.12 64.5048C141.008 64.2419 140.951 63.9586 140.954 63.6728V63.6444ZM140.954 66.7684H145.206V79.804H140.954V66.7684ZM160.643 73.2862C160.643 77.5462 158.758 79.9744 155.526 79.9744C154.697 80.0277 153.872 79.8248 153.162 79.393C152.452 78.9613 151.892 78.3216 151.557 77.5604H151.472V83.9788H147.219V66.74H151.472V69.0688H151.557C151.876 68.2951 152.426 67.6387 153.131 67.189C153.836 66.7393 154.662 66.5181 155.497 66.5554C158.758 66.6122 160.7 69.0546 160.7 73.3146L160.643 73.2862ZM156.39 73.2862C156.39 71.213 155.441 69.8924 153.952 69.8924C152.464 69.8924 151.514 71.2272 151.5 73.2862C151.486 75.3452 152.464 76.6658 153.952 76.6658C155.441 76.6658 156.39 75.3736 156.39 73.3146V73.2862ZM167.943 66.4702C171.472 66.4702 173.613 68.1458 173.712 70.8296H169.842C169.842 69.9066 169.077 69.3244 167.9 69.3244C166.724 69.3244 166.199 69.7788 166.199 70.4462C166.199 71.1136 166.667 71.3266 167.617 71.5254L170.338 72.0792C172.932 72.633 174.038 73.6838 174.038 75.6576C174.038 78.3556 171.586 80.088 167.971 80.088C164.357 80.088 161.989 78.3556 161.805 75.7002H165.902C166.029 76.6658 166.795 77.2338 168.042 77.2338C169.29 77.2338 169.856 76.822 169.856 76.1404C169.856 75.4588 169.46 75.3168 168.439 75.1038L165.987 74.5784C163.449 74.053 162.117 72.704 162.117 70.716C162.145 68.16 164.428 66.4986 167.943 66.4986V66.4702ZM188.227 79.7756H184.131V77.3474H184.045C183.82 78.1627 183.324 78.8762 182.638 79.3696C181.952 79.863 181.118 80.1064 180.275 80.0596C179.629 80.0964 178.982 79.9938 178.379 79.7589C177.776 79.5239 177.231 79.162 176.779 78.6975C176.328 78.2331 175.981 77.6771 175.762 77.0669C175.544 76.4567 175.458 75.8066 175.512 75.1606V66.74H179.765V74.1808C179.765 75.7286 180.558 76.5522 181.877 76.5522C182.186 76.5528 182.492 76.4873 182.773 76.3599C183.055 76.2325 183.306 76.0462 183.51 75.8136C183.714 75.581 183.866 75.3073 183.956 75.011C184.046 74.7147 184.072 74.4026 184.031 74.0956V66.74H188.284L188.227 79.7756ZM190.282 66.74H194.393V69.2534H194.478C194.704 68.4489 195.189 67.7422 195.859 67.2437C196.528 66.7452 197.344 66.4832 198.178 66.4986C199.026 66.4305 199.869 66.6849 200.539 67.2112C201.209 67.7374 201.656 68.4969 201.792 69.3386H201.877C202.135 68.4879 202.667 67.7472 203.391 67.233C204.114 66.7188 204.988 66.4604 205.875 66.4986C206.453 66.4791 207.029 66.5818 207.565 66.7999C208.101 67.0179 208.586 67.3466 208.987 67.7644C209.388 68.1822 209.696 68.6799 209.893 69.2251C210.089 69.7704 210.169 70.3509 210.127 70.929V79.804H205.875V72.065C205.875 70.645 205.237 69.9918 204.046 69.9918C203.781 69.9896 203.518 70.0444 203.275 70.1526C203.033 70.2608 202.816 70.4198 202.64 70.619C202.464 70.8182 202.333 71.0529 202.255 71.3072C202.177 71.5616 202.155 71.8297 202.189 72.0934V79.804H198.149V72.0082C198.149 70.7018 197.512 69.9918 196.349 69.9918C196.081 69.9919 195.815 70.049 195.57 70.1594C195.325 70.2698 195.107 70.4309 194.929 70.6322C194.75 70.8335 194.617 71.0703 194.537 71.3271C194.457 71.5839 194.432 71.8547 194.464 72.1218V79.804H190.212L190.282 66.74Z" fill="#CCCCCC"/>
<path d="M78.6416 63.3604C77.9202 61.708 76.9655 60.1681 75.8066 58.788C74.0935 56.6869 71.9557 54.973 69.5338 53.7592C67.1119 52.5454 64.4608 51.8592 61.7551 51.7457C59.0494 51.6323 56.3504 52.0941 53.8357 53.1009C51.321 54.1077 49.0476 55.6365 47.1652 57.5869C45.2829 59.5372 43.8341 61.8648 42.9144 64.4164C41.9946 66.9681 41.6248 69.6859 41.8291 72.3911C42.0334 75.0962 42.8073 77.7274 44.0998 80.1113C45.3923 82.4953 47.1742 84.578 49.328 86.2224C50.7101 87.2986 52.2372 88.1735 53.864 88.821C56.1448 89.7573 58.5858 90.2396 61.0506 90.241C66.1385 90.2297 71.0144 88.198 74.6095 84.5913C78.2045 80.9845 80.2254 76.097 80.2292 71C80.2329 68.3709 79.6923 65.7696 78.6416 63.3604ZM61.0365 55.6498C63.2499 55.6496 65.4367 56.1342 67.4435 57.0698C66.9541 57.2816 66.4396 57.4296 65.9126 57.51C64.1784 57.7615 62.572 58.568 61.333 59.8092C60.0939 61.0504 59.2888 62.6598 59.0378 64.397C58.9276 65.3713 58.4853 66.2777 57.7855 66.9632C57.0857 67.6487 56.1712 68.0715 55.1964 68.16C53.4623 68.4115 51.8558 69.218 50.6168 70.4592C49.3778 71.7004 48.5727 73.3098 48.3216 75.047C48.2366 75.9734 47.8421 76.844 47.2018 77.5178C46.0971 75.1794 45.6009 72.5991 45.7592 70.017C45.9176 67.4348 46.7254 64.9348 48.1076 62.7494C49.4897 60.5641 51.4012 58.7646 53.6642 57.5183C55.9272 56.272 58.4682 55.6195 61.0506 55.6214L61.0365 55.6498ZM49.3139 80.94C49.484 80.7838 49.6541 80.6418 49.8242 80.4714C51.0852 79.2466 51.8947 77.6298 52.1205 75.8848C52.212 74.9039 52.6492 73.9878 53.3537 73.3004C54.0316 72.5935 54.9441 72.1592 55.9193 72.0792C57.6535 71.8277 59.26 71.0212 60.499 69.78C61.738 68.5388 62.5431 66.9294 62.7941 65.1922C62.8555 64.1663 63.2949 63.1997 64.0273 62.48C64.722 61.7868 65.6431 61.3683 66.6213 61.3014C68.2145 61.0818 69.7003 60.3723 70.8738 59.2708C72.21 60.3813 73.3421 61.7173 74.219 63.2184C74.1652 63.2913 74.1034 63.358 74.0348 63.4172C73.3582 64.1303 72.4469 64.5742 71.4691 64.6668C69.7332 64.9139 68.1243 65.719 66.8845 66.961C65.6447 68.203 64.841 69.8148 64.5943 71.5538C64.4944 72.5314 64.0602 73.4443 63.3653 74.1378C62.6704 74.8314 61.7575 75.263 60.7813 75.3594C59.0421 75.609 57.4296 76.4139 56.1834 77.6546C54.9372 78.8953 54.1238 80.5057 53.864 82.2464C53.7877 82.9404 53.5498 83.6068 53.1694 84.1918C51.7151 83.3268 50.4125 82.2282 49.3139 80.94ZM61.0365 86.4212C59.5981 86.4228 58.1666 86.222 56.784 85.8248C57.257 84.9416 57.5644 83.979 57.6912 82.9848C57.7905 82.0094 58.2227 81.0982 58.9147 80.4049C59.6068 79.7116 60.5164 79.2787 61.49 79.1792C63.2268 78.9306 64.8364 78.1253 66.0782 76.8838C67.3201 75.6424 68.1272 74.0315 68.379 72.2922C68.4784 71.3168 68.9105 70.4056 69.6026 69.7123C70.2946 69.019 71.2042 68.5861 72.1779 68.4866C73.4848 68.3163 74.7305 67.8288 75.8066 67.0666C76.4042 69.3356 76.475 71.7116 76.0135 74.0123C75.5521 76.313 74.5708 78.4773 73.1448 80.339C71.7188 82.2008 69.886 83.7106 67.7871 84.7526C65.6882 85.7946 63.3789 86.3411 61.0365 86.3502V86.4212Z" fill="#CCCCCC"/>
</svg>
