<svg width="229" height="129" viewBox="0 0 229 129" fill="none" xmlns="http://www.w3.org/2000/svg">
<path d="M53.3528 62.3986C52.8647 62.8904 52.4908 63.4841 52.258 64.1371C52.0251 64.7902 51.9389 65.4867 52.0055 66.177L51.9823 66.1538C52.0508 66.9663 51.9414 67.784 51.6617 68.5498C51.3821 69.3156 50.9389 70.011 50.3632 70.5876C49.7875 71.1642 49.093 71.608 48.3283 71.888C47.5637 72.1681 46.7472 72.2776 45.9358 72.209L45.959 72.2322C44.9885 72.1418 44.0138 72.3533 43.1677 72.8379C42.3216 73.3226 41.6454 74.0567 41.2312 74.9403C40.8171 75.824 40.6851 76.814 40.8533 77.7755C41.0216 78.7369 41.4819 79.623 42.1714 80.3129C42.8609 81.0028 43.7461 81.463 44.7064 81.6306C45.6666 81.7982 46.655 81.6652 47.537 81.2496C48.4189 80.834 49.1514 80.1561 49.6346 79.3084C50.1178 78.4607 50.3281 77.4843 50.2369 76.5125L50.2614 76.5357C50.1929 75.7232 50.3023 74.9055 50.5819 74.1397C50.8615 73.3739 51.3047 72.6784 51.8804 72.1019C52.4562 71.5253 53.1506 71.0815 53.9153 70.8014C54.68 70.5214 55.4965 70.4118 56.3078 70.4804L56.2833 70.4572C57.0761 70.5286 57.874 70.3984 58.6032 70.0788C59.3324 69.7591 59.9692 69.2603 60.4546 68.6285C60.94 67.9967 61.2583 67.2525 61.38 66.4647C61.5017 65.677 61.4229 64.8712 61.1508 64.1221C60.8787 63.3729 60.4223 62.7047 59.8237 62.1793C59.2251 61.6539 58.5037 61.2883 57.7264 61.1165C56.9492 60.9446 56.1412 60.972 55.3773 61.1961C54.6135 61.4202 53.9185 61.8338 53.3567 62.3986H53.3528Z" fill="#CCCCCC"/>
<path d="M43.8508 69.1904L43.8263 69.1672C44.5159 69.2368 45.2123 69.152 45.8651 68.9191C46.518 68.6861 47.111 68.3107 47.6013 67.8202C48.0915 67.3296 48.4668 66.736 48.6999 66.0824C48.933 65.4287 49.0182 64.7314 48.9492 64.0408L48.9737 64.064C48.9052 63.2515 49.0146 62.4338 49.2942 61.668C49.5739 60.9022 50.017 60.2067 50.5928 59.6302C51.1685 59.0536 51.8629 58.6098 52.6276 58.3297C53.3923 58.0497 54.2088 57.9401 55.0201 58.0087L54.9957 57.9855C55.9662 58.0768 56.9413 57.866 57.7879 57.3819C58.6344 56.8978 59.3113 56.164 59.7261 55.2805C60.1409 54.397 60.2734 53.4069 60.1057 52.4452C59.9379 51.4835 59.478 50.597 58.7887 49.9067C58.0994 49.2164 57.2142 48.7558 56.2539 48.5878C55.2936 48.4198 54.3049 48.5526 53.4227 48.968C52.5405 49.3834 51.8078 50.0612 51.3244 50.909C50.841 51.7568 50.6305 52.7333 50.7217 53.7053L50.6985 53.6808C50.7672 54.4933 50.6579 55.3111 50.3784 56.077C50.0988 56.8429 49.6557 57.5385 49.0799 58.1151C48.5041 58.6917 47.8096 59.1355 47.0448 59.4155C46.28 59.6954 45.4634 59.8048 44.652 59.736L44.6752 59.7605C43.9856 59.691 43.2892 59.7757 42.6364 60.0087C41.9835 60.2416 41.3905 60.617 40.9003 61.1076C40.41 61.5982 40.0348 62.1918 39.8017 62.8454C39.5685 63.499 39.4834 64.1964 39.5523 64.887L39.5292 64.8638C39.5974 65.6762 39.4879 66.4938 39.2081 67.2595C38.9284 68.0252 38.4853 68.7206 37.9096 69.2971C37.3339 69.8736 36.6395 70.3174 35.875 70.5976C35.1104 70.8777 34.294 70.9874 33.4827 70.919L33.5059 70.9423C32.5353 70.851 31.5602 71.0618 30.7137 71.5458C29.8671 72.0299 29.1903 72.7638 28.7755 73.6472C28.3607 74.5307 28.2281 75.5208 28.3959 76.4825C28.5636 77.4443 29.0235 78.3307 29.7128 79.021C30.4022 79.7114 31.2873 80.1719 32.2477 80.3399C33.208 80.5079 34.1966 80.3752 35.0788 79.9598C35.961 79.5444 36.6938 78.8665 37.1772 78.0187C37.6606 77.171 37.871 76.1945 37.7799 75.2225L37.8044 75.2457C37.7359 74.4332 37.8453 73.6155 38.1249 72.8497C38.4046 72.0839 38.8477 71.3885 39.4234 70.8119C39.9992 70.2353 40.6936 69.7915 41.4583 69.5115C42.223 69.2314 43.0395 69.1219 43.8508 69.1904Z" fill="#CCCCCC"/>
<path d="M35.217 66.6014C35.7053 66.1096 36.0791 65.516 36.3117 64.8629C36.5444 64.2097 36.6303 63.5132 36.5631 62.823L36.5876 62.8462C36.5191 62.0335 36.6285 61.2155 36.9083 60.4496C37.1881 59.6836 37.6315 58.988 38.2075 58.4113C38.7835 57.8347 39.4783 57.391 40.2433 57.1111C41.0083 56.8312 41.8251 56.722 42.6366 56.791L42.6121 56.7677C43.5824 56.8588 44.5571 56.6479 45.4032 56.1638C46.2494 55.6798 46.9259 54.9461 47.3404 54.0629C47.755 53.1797 47.8874 52.1899 47.7197 51.2286C47.5519 50.2673 47.0922 49.3811 46.4031 48.6911C45.714 48.001 44.8292 47.5406 43.8692 47.3726C42.9093 47.2046 41.921 47.3372 41.0391 47.7524C40.1571 48.1675 39.4245 48.845 38.9412 49.6924C38.4578 50.5398 38.2473 51.5159 38.3382 52.4875L38.315 52.4643C38.3835 53.2768 38.2741 54.0945 37.9944 54.8603C37.7148 55.6261 37.2716 56.3215 36.6959 56.8981C36.1201 57.4747 35.4257 57.9185 34.661 58.1985C33.8963 58.4786 33.0798 58.5881 32.2685 58.5196L32.2917 58.5428C31.4989 58.4716 30.7011 58.6019 29.972 58.9218C29.243 59.2416 28.6063 59.7405 28.1211 60.3723C27.6358 61.0041 27.3177 61.7484 27.1961 62.5361C27.0745 63.3239 27.1535 64.1296 27.4256 64.8787C27.6978 65.6277 28.1543 66.2958 28.753 66.8211C29.3516 67.3465 30.0729 67.7119 30.8502 67.8837C31.6274 68.0555 32.4353 68.0281 33.1991 67.8039C33.963 67.5798 34.6579 67.1661 35.2196 66.6014H35.217Z" fill="#CCCCCC"/>
<path d="M75.1191 53.735H78.9449V72.3793H75.1191V53.735Z" fill="#CCCCCC"/>
<path d="M81.1115 65.9951C81.1062 64.6553 81.498 63.344 82.2374 62.2273C82.9768 61.1107 84.0305 60.2389 85.265 59.7224C86.4995 59.206 87.8594 59.0681 89.1722 59.3262C90.4851 59.5843 91.6919 60.2268 92.6398 61.1723C93.5878 62.1178 94.2342 63.3238 94.4972 64.6375C94.7601 65.9512 94.6279 67.3136 94.1171 68.552C93.6064 69.7903 92.7401 70.8491 91.6281 71.594C90.516 72.339 89.2082 72.7366 87.8703 72.7366C86.9822 72.7468 86.101 72.5795 85.2782 72.2447C84.4553 71.9098 83.7074 71.414 83.0782 70.7864C82.4489 70.1587 81.9508 69.4117 81.6132 68.589C81.2755 67.7664 81.1049 66.8845 81.1115 65.9951ZM90.8033 65.9951C90.7874 65.4176 90.6018 64.8576 90.2698 64.3851C89.9377 63.9126 89.474 63.5487 88.9365 63.3387C88.3991 63.1287 87.8117 63.0821 87.2479 63.2046C86.6842 63.3271 86.1689 63.6133 85.7667 64.0275C85.3644 64.4416 85.093 64.9653 84.9864 65.5331C84.8797 66.1009 84.9425 66.6876 85.167 67.2198C85.3915 67.752 85.7677 68.2062 86.2485 68.5255C86.7293 68.8448 87.2934 69.015 87.8703 69.015C88.2654 69.0256 88.6584 68.954 89.0245 68.8049C89.3906 68.6558 89.7219 68.4323 89.9975 68.1486C90.2731 67.8649 90.4869 67.527 90.6256 67.1564C90.7643 66.7857 90.8248 66.3903 90.8033 65.9951Z" fill="#CCCCCC"/>
<path d="M109.877 59.6096V71.7356C109.877 76.0261 106.535 77.8399 103.144 77.8399C101.949 77.9294 100.754 77.6878 99.6875 77.1417C98.6214 76.5956 97.726 75.766 97.0996 74.7439L100.364 72.854C100.627 73.3868 101.047 73.8264 101.566 74.1138C102.086 74.4013 102.681 74.523 103.271 74.4627C103.648 74.515 104.033 74.4817 104.396 74.3653C104.758 74.2488 105.091 74.0521 105.367 73.7898C105.644 73.5274 105.858 73.2061 105.994 72.8497C106.13 72.4932 106.184 72.1107 106.153 71.7304V70.563C105.705 71.1119 105.134 71.5481 104.488 71.8364C103.841 72.1247 103.136 72.2572 102.429 72.2232C100.746 72.1701 99.1502 71.4634 97.9788 70.2527C96.8074 69.042 96.1523 67.4223 96.1523 65.7365C96.1523 64.0506 96.8074 62.4309 97.9788 61.2202C99.1502 60.0095 100.746 59.3028 102.429 59.2497C103.136 59.2157 103.841 59.3482 104.488 59.6365C105.134 59.9248 105.705 60.361 106.153 60.9099V59.607L109.877 59.6096ZM106.154 65.7384C106.18 65.1209 106.02 64.5099 105.696 63.9839C105.372 63.458 104.898 63.0412 104.336 62.7871C103.773 62.5331 103.148 62.4534 102.54 62.5584C101.932 62.6634 101.369 62.9483 100.924 63.3763C100.479 63.8044 100.172 64.3561 100.042 64.9603C99.9129 65.5646 99.9671 66.1938 100.198 66.7669C100.428 67.3401 100.825 67.831 101.337 68.1765C101.849 68.5219 102.452 68.7061 103.069 68.7054C103.471 68.7335 103.874 68.677 104.253 68.5394C104.632 68.4019 104.978 68.1865 105.268 67.907C105.559 67.6275 105.788 67.2901 105.94 66.9166C106.093 66.5431 106.166 66.1417 106.154 65.7384Z" fill="#CCCCCC"/>
<path d="M112.043 65.9951C112.038 64.6553 112.43 63.344 113.169 62.2273C113.908 61.1107 114.962 60.2389 116.197 59.7224C117.431 59.206 118.791 59.0681 120.104 59.3262C121.417 59.5843 122.624 60.2268 123.571 61.1723C124.519 62.1178 125.166 63.3238 125.429 64.6375C125.692 65.9512 125.56 67.3136 125.049 68.552C124.538 69.7903 123.672 70.8491 122.56 71.594C121.448 72.339 120.14 72.7366 118.802 72.7366C117.914 72.7468 117.033 72.5795 116.21 72.2447C115.387 71.9098 114.639 71.414 114.01 70.7864C113.381 70.1587 112.882 69.4117 112.545 68.589C112.207 67.7664 112.037 66.8845 112.043 65.9951ZM121.735 65.9951C121.719 65.4176 121.533 64.8576 121.201 64.3851C120.869 63.9126 120.406 63.5487 119.868 63.3387C119.331 63.1287 118.743 63.0821 118.18 63.2046C117.616 63.3271 117.101 63.6133 116.698 64.0275C116.296 64.4416 116.025 64.9653 115.918 65.5331C115.811 66.1009 115.874 66.6876 116.099 67.2198C116.323 67.752 116.699 68.2062 117.18 68.5255C117.661 68.8448 118.225 69.015 118.802 69.015C119.197 69.0256 119.59 68.954 119.956 68.8049C120.322 68.6558 120.654 68.4323 120.929 68.1486C121.205 67.8649 121.419 67.527 121.557 67.1564C121.696 66.7857 121.756 66.3903 121.735 65.9951Z" fill="#CCCCCC"/>
<path d="M127.345 56.1872C127.345 55.7326 127.479 55.2881 127.732 54.9101C127.984 54.5321 128.342 54.2374 128.762 54.0634C129.181 53.8895 129.643 53.8439 130.088 53.9326C130.533 54.0213 130.942 54.2403 131.263 54.5618C131.584 54.8832 131.803 55.2928 131.892 55.7388C131.98 56.1847 131.935 56.6469 131.761 57.0669C131.587 57.487 131.293 57.846 130.915 58.0986C130.538 58.3512 130.094 58.486 129.64 58.486C129.033 58.48 128.453 58.2358 128.024 57.806C127.595 57.3762 127.351 56.795 127.345 56.1872ZM127.731 59.6096H131.558V72.3806H127.726L127.731 59.6096Z" fill="#CCCCCC"/>
<path d="M148.077 65.9951C148.121 66.8391 147.999 67.6836 147.716 68.4799C147.433 69.2762 146.996 70.0087 146.429 70.6352C145.863 71.2617 145.178 71.7699 144.415 72.1305C143.652 72.4912 142.825 72.6972 141.982 72.7366C141.273 72.7754 140.564 72.6556 139.907 72.3861C139.25 72.1166 138.661 71.704 138.183 71.1783V77.4877H134.357V59.6096H138.183V60.8093C138.661 60.284 139.25 59.8718 139.907 59.6025C140.564 59.3332 141.273 59.2136 141.982 59.2523C142.825 59.2916 143.652 59.4975 144.416 59.8582C145.179 60.2188 145.864 60.7271 146.43 61.3538C146.997 61.9805 147.434 62.7132 147.717 63.5097C147.999 64.3063 148.122 65.1509 148.077 65.9951ZM144.251 65.9951C144.237 65.3974 144.046 64.8174 143.703 64.3277C143.361 63.838 142.882 63.4603 142.326 63.2419C141.77 63.0236 141.163 62.9742 140.579 63.1C139.995 63.2259 139.462 63.5213 139.045 63.9494C138.628 64.3774 138.347 64.9191 138.236 65.5065C138.125 66.094 138.189 66.7012 138.421 67.2521C138.653 67.803 139.042 68.2731 139.54 68.6037C140.037 68.9342 140.621 69.1105 141.218 69.1105C141.628 69.1287 142.037 69.06 142.418 68.9089C142.8 68.7577 143.145 68.5275 143.432 68.2333C143.718 67.9392 143.939 67.5877 144.08 67.202C144.222 66.8163 144.28 66.405 144.251 65.9951Z" fill="#CCCCCC"/>
<path d="M159.883 68.548C159.883 71.4853 157.334 72.7366 154.58 72.7366C153.467 72.8376 152.35 72.6019 151.373 72.0601C150.395 71.5183 149.602 70.6953 149.097 69.6974L152.411 67.8076C152.545 68.2688 152.833 68.67 153.227 68.9442C153.621 69.2185 154.097 69.3491 154.575 69.3143C155.492 69.3143 155.952 69.0331 155.952 68.5235C155.952 67.1174 149.678 67.8592 149.678 63.4409C149.678 60.6558 152.025 59.2523 154.677 59.2523C155.674 59.2207 156.661 59.4575 157.536 59.9381C158.41 60.4186 159.14 61.1253 159.649 61.9845L156.385 63.7466C156.242 63.4121 156.003 63.1272 155.7 62.9274C155.396 62.7276 155.04 62.6217 154.677 62.623C154.013 62.623 153.605 62.881 153.605 63.3377C153.61 64.7941 159.883 63.8227 159.883 68.548Z" fill="#CCCCCC"/>
<path d="M173.858 59.6096V72.3806H170.033V71.1796C169.591 71.7096 169.031 72.1271 168.397 72.398C167.763 72.6689 167.075 72.7854 166.387 72.738C163.811 72.738 161.621 70.8997 161.621 67.4489V59.6096H165.447V66.8878C165.415 67.192 165.449 67.4995 165.548 67.7889C165.647 68.0783 165.807 68.3427 166.018 68.5637C166.23 68.7847 166.486 68.957 166.771 69.0686C167.055 69.1802 167.36 69.2283 167.665 69.2098C169.068 69.2098 170.036 68.3932 170.036 66.5795V59.6135L173.858 59.6096Z" fill="#CCCCCC"/>
<path d="M195.794 64.5387V72.3793H191.969V64.8702C191.969 63.5931 191.357 62.7766 190.133 62.7766C188.858 62.7766 188.143 63.6705 188.143 65.1772V72.3793H184.318V64.8702C184.318 63.5931 183.707 62.7766 182.482 62.7766C181.206 62.7766 180.493 63.6705 180.493 65.1772V72.3793H176.667V59.6083H180.493V60.7822C180.889 60.2614 181.41 59.8484 182.007 59.5809C182.604 59.3135 183.258 59.2 183.91 59.251C184.565 59.2189 185.216 59.3573 185.802 59.6525C186.387 59.9478 186.886 60.3899 187.25 60.9357C187.674 60.3647 188.236 59.9106 188.882 59.616C189.529 59.3213 190.24 59.1958 190.948 59.251C193.876 59.2523 195.794 61.3459 195.794 64.5387Z" fill="#CCCCCC"/>
<path d="M199.03 59.5309C200.598 59.5309 201.869 58.258 201.869 56.6878C201.869 55.1175 200.598 53.8446 199.03 53.8446C197.462 53.8446 196.191 55.1175 196.191 56.6878C196.191 58.258 197.462 59.5309 199.03 59.5309Z" fill="#CCCCCC"/>
</svg>
